<?xml version="1.0" encoding="utf-8"?>
<!-- Generator: Adobe Illustrator 23.1.0, SVG Export Plug-In . SVG Version: 6.00 Build 0)  -->
<svg version="1.1" id="Layer_1" xmlns="http://www.w3.org/2000/svg" xmlns:xlink="http://www.w3.org/1999/xlink" x="0px" y="0px"
	 viewBox="0 0 74.7 74.4" style="enable-background:new 0 0 74.7 74.4;" xml:space="preserve">
<style type="text/css">
	.st0{display:none;}
	.st1{display:inline;}
	.st2{clip-path:url(#SVGID_2_);}
	.st3{fill:#AEADAE;}
	.st4{clip-path:url(#SVGID_4_);fill:#FFFFFF;}
</style>
<g class="st0">
	<title>cart</title>
	<g class="st1">
		<g>
			<g>
				<defs>
					<rect id="SVGID_1_" x="7.4" y="3.4" width="60" height="67.6"/>
				</defs>
				<clipPath id="SVGID_2_">
					<use xlink:href="#SVGID_1_"  style="overflow:visible;"/>
				</clipPath>
				<g class="st2">
					<path class="st3" d="M67.3,58.8L64,21.3c-0.2-2.7-2.7-4.7-5.7-4.7h-6.1c0-7.4-6.7-13.3-14.9-13.3s-14.9,6-14.9,13.3h-6.1
						c-3,0-5.5,2.1-5.7,4.7L7.4,58.8C6.8,65,12,70.5,19,71c0.3,0,0.7,0,1,0h34.7c7,0,12.6-5.1,12.6-11.3
						C67.3,59.4,67.3,59.1,67.3,58.8 M25.2,28.1c1.5,0,2.7-1.1,2.7-2.4v-4.4h19v4.4c0,1.3,1.2,2.4,2.7,2.4s2.7-1.1,2.7-2.4l0,0v-4.4
						h6.1c0.2,0,0.3,0.1,0.3,0.3L62,59.1c0.3,3.6-2.7,6.7-6.7,7c-0.2,0-0.4,0-0.5,0H20c-4,0-7.2-2.9-7.2-6.5c0-0.2,0-0.3,0-0.5
						l3.3-37.5c0-0.2,0.2-0.3,0.3-0.3h6.1v4.4C22.5,27.1,23.7,28.1,25.2,28.1 M27.9,16.6c0-4.7,4.3-8.5,9.5-8.5s9.5,3.8,9.5,8.5
						H27.9z"/>
				</g>
			</g>
		</g>
	</g>
</g>
<g>
	<g>
		<g>
			<defs>
				<rect id="SVGID_3_" x="8.3" y="0.3" width="58.7" height="73.7"/>
			</defs>
			<clipPath id="SVGID_4_">
				<use xlink:href="#SVGID_3_"  style="overflow:visible;"/>
			</clipPath>
			<path class="st4" d="M66.9,60.8l-3.2-40.9c-0.2-2.9-2.7-5.2-5.6-5.2h-5.9c-0.1-8-6.6-14.4-14.6-14.4S23.2,6.7,23,14.7h-5.9
				c-2.9,0-5.4,2.3-5.6,5.2l-3.3,41c-0.3,3.4,0.9,6.8,3.3,9.3c2.3,2.5,5.6,4,9.1,4h34c3.4,0,6.7-1.4,9.1-4
				C66,67.6,67.2,64.2,66.9,60.8 M25.7,27.3c1.4,0,2.6-1.2,2.6-2.6v-4.8h18.6v4.8c0,1.4,1.2,2.6,2.6,2.6c1.4,0,2.6-1.2,2.6-2.6v-4.8
				H58c0.2,0,0.3,0.1,0.3,0.3l3.2,40.9c0.2,2-0.5,3.9-1.9,5.4s-3.2,2.3-5.2,2.3h-34c-2,0-3.8-0.8-5.2-2.3s-2-3.4-1.9-5.4l3.2-41
				c0-0.2,0.2-0.3,0.3-0.3h5.9v4.8C23.1,26.1,24.2,27.3,25.7,27.3 M28.3,14.7c0.1-5,4.2-9.1,9.3-9.1s9.2,4.1,9.3,9.1H28.3z"/>
		</g>
	</g>
</g>
</svg>
