<?xml version="1.0" encoding="utf-8"?>
<!-- Generator: Adobe Illustrator 23.1.0, SVG Export Plug-In . SVG Version: 6.00 Build 0)  -->
<svg version="1.1" id="Layer_1" xmlns="http://www.w3.org/2000/svg" xmlns:xlink="http://www.w3.org/1999/xlink" x="0px" y="0px"
	 viewBox="0 0 48 48" style="enable-background:new 0 0 48 48;" xml:space="preserve">
<style type="text/css">
	.st0{fill:#ACACAD;}
</style>
<g>
	<path class="st0" d="M41.2,7.2C31.9-2.3,16.7-2.4,7.2,6.8s-9.7,24.5-0.4,33.9c9.3,9.5,24.5,9.7,33.9,0.4
		C50.3,31.9,50.4,16.7,41.2,7.2z M37.9,38.2c-7.9,7.7-20.5,7.6-28.2-0.3C2,30,2.1,17.3,10,9.6s20.5-7.6,28.2,0.3
		C45.9,17.8,45.8,30.5,37.9,38.2z"/>
	<path class="st0" d="M31.7,17.5l-1.1-1.1c-0.8-0.8-1.7-0.1-2,0.1L24,21l-4.6-4.7c-0.3-0.3-1.1-0.8-1.9,0l-1.1,1.1
		c-0.8,0.8-0.1,1.7,0.1,2L21,24l-4.7,4.6c-0.9,0.9-0.3,1.6-0.1,1.8l1.3,1.3c0.2,0.2,0.9,0.8,1.8-0.1L24,27l4.6,4.7
		c0.9,0.9,1.6,0.3,1.8,0.1l1.3-1.3c0.2-0.2,0.8-0.9-0.1-1.8L27,24l4.7-4.6C32,19.1,32.5,18.3,31.7,17.5z"/>
</g>
</svg>
