<?xml version="1.0" encoding="utf-8"?>
<!-- Generator: Adobe Illustrator 23.1.0, SVG Export Plug-In . SVG Version: 6.00 Build 0)  -->
<svg version="1.1" id="Layer_1" xmlns="http://www.w3.org/2000/svg" xmlns:xlink="http://www.w3.org/1999/xlink" x="0px" y="0px"
	 viewBox="0 0 91 112" style="enable-background:new 0 0 91 112;" xml:space="preserve">
<style type="text/css">
	.st0{fill:none;stroke:#FFFFFF;stroke-width:7;stroke-miterlimit:10;}
</style>
<title>faviourite</title>
<g>
	<g id="Layer_1-2">
		<path class="st0" d="M64.6,21.1c-7.9,0-15.2,4.4-19.1,11.5c-6-10.9-19.4-14.8-29.9-8.6C8.7,28,4.4,35.6,4.4,43.8
			c0,6.6,2.2,13.3,6.5,20c3.8,5.7,8.4,10.8,13.7,15.2c6.1,5.2,12.7,9.8,19.7,13.6c0.8,0.4,1.7,0.4,2.5,0c7-3.8,13.6-8.3,19.7-13.6
			c5.2-4.4,9.9-9.5,13.7-15.3c4.3-6.7,6.5-13.4,6.5-20C86.6,31.3,76.8,21.1,64.6,21.1z"/>
	</g>
</g>
</svg>
