<?xml version="1.0" encoding="utf-8"?>
<!-- Generator: Adobe Illustrator 22.1.0, SVG Export Plug-In . SVG Version: 6.00 Build 0)  -->
<svg version="1.1"
	 id="svg8" xmlns:cc="http://creativecommons.org/ns#" xmlns:dc="http://purl.org/dc/elements/1.1/" xmlns:inkscape="http://www.inkscape.org/namespaces/inkscape" xmlns:rdf="http://www.w3.org/1999/02/22-rdf-syntax-ns#" xmlns:sodipodi="http://sodipodi.sourceforge.net/DTD/sodipodi-0.dtd" xmlns:svg="http://www.w3.org/2000/svg"
	 xmlns="http://www.w3.org/2000/svg" xmlns:xlink="http://www.w3.org/1999/xlink" x="0px" y="0px" viewBox="0 0 32 32"
	 style="enable-background:new 0 0 32 32;" xml:space="preserve">
<style type="text/css">
	.st0{fill:#FAFBFC;}
</style>
<g id="layer1" transform="translate(0,-288.53332)">
	<path id="path929" class="st0" d="M16,289.5c-6.1,0-11,4.9-11,11c0,10.7,10.4,18.8,10.4,18.8c0.4,0.3,0.9,0.3,1.2,0
		c0,0,10.4-8.1,10.4-18.8C27,294.5,22.1,289.5,16,289.5z M16,295.5c2.7,0,5,2.2,5,5c0,2.7-2.3,5-5,5s-5-2.3-5-5
		C11,297.8,13.2,295.5,16,295.5z"/>
</g>
</svg>
