<?xml version="1.0" encoding="utf-8"?>
<!-- Generator: Adobe Illustrator 22.1.0, SVG Export Plug-In . SVG Version: 6.00 Build 0)  -->
<svg version="1.1" id="Layer_1" xmlns="http://www.w3.org/2000/svg" xmlns:xlink="http://www.w3.org/1999/xlink" x="0px" y="0px"
	 viewBox="0 0 500 500" style="enable-background:new 0 0 500 500;" xml:space="preserve">
<style type="text/css">
	.st0{fill:#FFFFFF;}
</style>
<path class="st0" d="M255.8,439.1c37.2,37.3,97.6,37.3,134.8,0c23.2-23.2,32-55.2,26.3-85.2c9.8-5,18.6-10.8,26-16.3
	c0.8-0.6,4.5-3.2,5.4-3.9c4.1-3.4,6.7-8.4,6.7-14.2c0-5.4-2.4-10.4-6.2-13.6l-75-61.8c-3.1-2.5-7.1-4.1-11.4-4.1
	c-4.9,0-9.4,1.9-12.6,5c-1.3,1.3-12.5,12.8-12.5,12.8c-7.8,7.8-20.4,7.8-28.3,0l-76.5-76.6c-7.8-7.8-7.8-20.5,0-28.3l12.4-12.4
	c3.3-3.3,5.2-7.8,5.2-12.7c0-4.9-1.9-9.3-5-12.5l-64.2-77.6c-3.4-4-8.5-6.6-14.1-6.6c-6,0-11.3,2.9-14.6,7.4l-1.1,1.5
	c-14,18.9-32.3,48.9-32.3,77.1c0,77.6,173,250.3,249.9,250.3c1.5,0,2.9-0.1,4.3-0.1c1.4,14.3-3.5,29-14.4,40
	c-19.5,19.5-51.2,19.5-70.7,0L162.4,278.1c-26.6-26.6-69.7-26.6-96.3,0c-26.6,26.6-26.6,69.7,0,96.3l41.2,40.6
	c8.9,8.8,23.3,8.8,32.2,0c8.8-8.9,8.8-23.3,0-32.2l-41.2-40.5c-8.8-8.9-8.8-23.3,0-32.2c8.9-8.8,23.3-8.8,32.2,0L255.8,439.1z"/>
</svg>
