<?xml version="1.0" encoding="utf-8"?>
<!-- Generator: Adobe Illustrator 22.1.0, SVG Export Plug-In . SVG Version: 6.00 Build 0)  -->
<svg version="1.1" id="Layer_1" xmlns="http://www.w3.org/2000/svg" xmlns:xlink="http://www.w3.org/1999/xlink" x="0px" y="0px"
	 viewBox="0 0 32 32" style="enable-background:new 0 0 32 32;" xml:space="preserve">
<style type="text/css">
	.st0{fill:#FFFFFF;}
</style>
<g>
	<path class="st0" d="M4.3,7.7l10,7.9c0.5,0.4,1.1,0.5,1.7,0.5c0.6,0,1.2-0.1,1.7-0.5l10-7.9c0.8-0.6,0.6-1.2-0.4-1.2H16H4.7
		C3.7,6.5,3.5,7,4.3,7.7z"/>
	<path class="st0" d="M28.4,9.8l-11,8.3c-0.4,0.3-0.9,0.5-1.5,0.5c-0.5,0-1.1-0.1-1.5-0.5l-11-8.3c-0.8-0.6-1.5-0.3-1.5,0.7v13.7
		c0,1,0.8,1.9,1.9,1.9H16h12.1c1,0,1.9-0.8,1.9-1.9V10.5C29.9,9.5,29.3,9.1,28.4,9.8z"/>
</g>
</svg>
