<?xml version="1.0" encoding="utf-8"?>
<!-- Generator: Adobe Illustrator 23.1.0, SVG Export Plug-In . SVG Version: 6.00 Build 0)  -->
<svg version="1.1" id="Layer_1" xmlns="http://www.w3.org/2000/svg" xmlns:xlink="http://www.w3.org/1999/xlink" x="0px" y="0px"
	 viewBox="0 0 380 189.5" style="enable-background:new 0 0 380 189.5;" xml:space="preserve">
<style type="text/css">
	.st0{fill-rule:evenodd;clip-rule:evenodd;fill:#458B4F;}
</style>
<title>leaf</title>
<g>
	<g id="Layer_1-2">
		<path class="st0" d="M235.9,64.2c-0.2,0.1-1,0.6-1,0.6l-48.7,13.9l-0.2,0.1l-34.6,11.7c-0.8,0.3-1.7,0.6-2.6,0.7l-5.4,1.9
			c-4.6,1.8-10,2.9-14.7,4.8c-3.6,1.4-7.3,2.2-11,3.6c-0.8,0.4-1.7,0.7-2.6,0.7c0.3-0.8,0-0.3,0.5-0.8l5.2-4.1
			c0.4-0.3,0.3-0.1,0.5-0.3c1.1-0.5,1.8-1.7,2.9-2.4l6.1-5.5c2.3-1.7,4.4-3.6,6.3-5.7l9.1-10l0.2-0.2l1.4-1.6l0.1-0.2l0.1-0.2l3-3.6
			l0.3-0.4l12.4-16.7l0.3-0.4L178,29.2l0.1-0.2c4.9-6.9,9.7-13.5,14.7-20.3l0.1-0.2l5.5-7.1c0.4-0.8,0.2-0.4,0.2-1.4
			c-2,0.2-4.3,3-6.6,4.7l-0.7,0.6l-0.2,0.2l-10.2,8.7c-0.2,0.2-0.1,0.1-0.4,0.3l-0.3,0.3l-0.2,0.2c-0.3,0.3-0.2,0.2-0.5,0.5
			s-0.1,0.1-0.5,0.5c-10.1,9.6-19,17.7-28.2,28l-0.3,0.3l-3.3,4l-0.1,0.2L138,60l-0.1,0.2l-7.7,11.5l-0.1,0.2
			c-4.5,8.1-7.9,12.7-13.2,20.6l-0.1,0.2l-3.3,5c-1.7,2.4-3.7,4.7-5.9,6.7l-3.9,3.4c-0.9,0.6-1.3,0.9-2.2,1.4l-10.4,5.5
			c-1.6,0.6-2.7,1.4-4.5,1.5l1.3-1.3c0.5-0.3,1-0.8,1.3-1.3l1.4-1.1c0,0,0-0.1,0.1-0.1c1-1.3,2.1-2.5,3.4-3.5l8.3-9.9
			c0.2-0.2,0.3-0.3,0.5-0.5l1-1.3l0.1-0.2l4.7-6.8c0.1-0.2,0.2-0.4,0.4-0.6c0.3-0.4,0.4-0.5,0.7-0.9c5-6.8,9.7-16.3,13.6-24.2
			l0.1-0.2c2.3-4.7,4.4-10,6.6-14.6c5.2-10.6,9.8-21.6,15.1-32.2c1.8-4.5,4.4-9.5,6.5-14l0.3-0.4c0.6-1.1,0.7-2.2-0.7-2.6
			c-1.6-0.5-2.2,0.9-3.4,2.6L145,6.4c0,0.1-0.1,0.1-0.1,0.2l-6.8,8.8l-0.1,0.2c-5.2,6.8-9.8,13.4-14.7,20.4c-1.8,2.8-4.2,6.1-6.2,9
			l-0.1,0.2l-1,1.7c-1,1.7-2.2,3.1-3.1,4.8l-4.2,7c0,0.1-0.1,0.2-0.1,0.2l-2.2,3.4l-0.1,0.2c0,0.1-0.1,0.2-0.1,0.2l-0.7,1.3
			l-0.1,0.2l-0.3,0.4c0,0.1-0.1,0.1-0.1,0.2l-4.6,7.7c0,0.1-0.1,0.2-0.1,0.2l-0.1,0.2l-3.3,5.9c-0.3,0.6-0.3,0.6-0.6,1.1
			c-5.5,10.3-11,20.6-16.4,30.8l-0.5,0.8c-1.5,3-3.3,5.9-5.3,8.5l-13.3,12.1c-0.3,0.2-0.7,0.5-1,0.7l-16.9,11.5
			c0.1-1.5,3.3-4.7,4.4-6.2l0.2-0.2c3-4,5.9-7.9,8.8-12c0.3-0.4,0.3-0.4,0.5-0.8l4.1-6.2l0.3-0.4c0.9-1.4,1.6-2.8,2.3-4.3l5.5-9.7
			c0.3-0.4,0.4-0.6,0.6-1l2-4.3c0-0.1,0.2-0.3,0.3-0.4l0.5-1.1c0-0.1,0-0.2,0.1-0.3s0-0.2,0.1-0.2l1.1-2.6c0.2-0.4,0.4-0.7,0.5-1.1
			l2.6-6.4c2.1-4.9,3.7-12.1,6.1-16.7l5.3-15.2c0.1-0.3,0.2-0.7,0.3-1.1l2-5.3c0.2-0.6,0.1-0.6,0.2-1.1l0.1-0.3l6.4-19.1
			c0-0.1,0.1-0.1,0.1-0.2l2-5.6c0-0.1,0.1-0.2,0.1-0.2l1.2-4.4c-1.7,0-1.1,0.1-1.9,1.1l-3.1,4.2l-0.1,0.2L84.9,36.9l-0.4,0.5
			c-6,8.7-10.9,16.3-16.5,25.5c0,0.1-0.1,0.1-0.1,0.2l-0.3,0.7c-0.2,0.5-0.5,1-0.9,1.5L63.4,72l-0.1,0.2l-1.4,3.2
			c0,0.1-0.1,0.1-0.1,0.2L61.1,77c-1.1,2.5-4.1,9.8-4.4,12l-10,35.4c-1.8,4.8-3.9,9.4-6.3,13.9c-0.1,0.2-0.3,0.5-0.3,0.6l-0.7,1.3
			c0,0.1-0.1,0.1-0.1,0.2c-0.1,0.2-0.3,0.4-0.4,0.6l-8.5,13c-0.2,0.3-0.2,0.3-0.4,0.6c-0.1,0.2-0.2,0.4-0.4,0.6
			c-0.7,1-0.2,0.1-0.9,1.1l-1.9,2.2c-0.6,0.8,0.2-0.4-0.3,0.4l-6.2,6.6l-5.8,5.4c-0.1,0-0.1,0.1-0.2,0.2s-0.1,0.1-0.2,0.1l-4,3.3
			l-0.2,0.1l-8.1,8.8l-0.1,0.2c-1.6,2.4-1.8,2.4-1.8,5.8c4.1,0,3.2-1.7,5.9-4c2.2-2.1,4.2-4.4,6.1-6.8c7.5-8.5,8.8-10.8,18.2-18.2
			c2-1.4,8.3-3.1,10.5-3.4c1.8-0.2,5.1-0.1,6.5-0.2c3.9-0.3,13.8,0.8,17.7,2.1l7.5,2.1c2.2,0.7,4.6,1.2,6.8,2.2l8.2,2.7
			c1.1,0.4,1.7,0.3,2.8,0.8c0.8,0.3,1.5,0.7,2.3,1l9.1,3.1l0.2,0.1l6,1.9c1.4,0.4,1.6,0.6,2.7,0.9l22.7,4.7c1.7,0.1,3.9,0.5,5.9,0.7
			c3.9,0.6,12.6,0.4,17,0.2c0.4,0,1.1-0.1,1.1-0.1c0.9-0.3,0.5,0.1,0.9-0.9l-19.4-7c-2.6-0.6-4.9-1.8-7.4-2.5l-1.4-0.6
			c-0.2-0.1-0.3-0.1-0.5-0.2c-0.4-0.2-0.4-0.1-0.8-0.2c-0.3-0.1-0.6-0.2-0.9-0.4c-0.8-0.4-0.7-0.3-1.6-0.7l-45.6-16.7
			c-1.3-0.4-7-1.3-8.5-1.4c-9.4-0.9-18.9,0-28,2.5c-2,0.6-3.6,1.7-5.7,1.8l7-6.2c0.3-0.2,0.3-0.2,0.6-0.4c0.6-0.4,1.1-0.8,1.7-1.3
			l5.7-4.2c1.5-1-1,0.7,0.4-0.3l17.8-11.7c0.4-0.2,0.8-0.4,1.2-0.5l21.4-12c1-0.5,1.3-0.5,2.3-1.1l10.8-5.8c3-1.5,6.2-2.6,9.5-3.4
			c1.4-0.4,3.8-0.5,5.6-0.7c2.6-0.2,5.3,0,7.9,0.6l20.5,8.1l0.2,0.1c0,0,0.4,0.2,0.6,0.3l1.9,1.1c0.9,0.2,1.7,0.6,2.6,1
			c0.5,0.3,0.1,0.1,0.5,0.3c0.3,0.1,0.6,0.2,0.9,0.3l0.4,0.2l0.2,0.1l7.7,3.5l1.5,0.8l0.9,0.4l26,10.4c4.3,1.7,9.3,2.6,13.9,3.6
			c4.2,0.9,6.9,1.1,11.3,1.6c1.8,0.2,7.8,1,9.3,0.3c-0.5-1.4-1.7-0.7-4.1-1.8c-0.5-0.2-1.1-0.5-1.7-0.6l-0.2-0.1l-11.4-4.8
			c-0.4-0.2-0.9-0.4-1.4-0.6c-3.3-1.3-6.2-3.1-9.4-4.5l-4.9-2.7c-0.5-0.3,0,0-0.6-0.4l-0.2-0.1l-0.2-0.1l-21.9-12.4
			c-0.4-0.2-0.8-0.5-1.2-0.8c-0.4-0.3-0.2-0.1-0.6-0.4l-0.4-0.3l-11.6-6.3c-4.5-1.6-9.2-2.7-13.9-3.2c-1-0.1-3.2-0.4-3.8-0.4
			l-7.7,0.3c0.9-0.2,1.9-0.5,2.7-0.9l0.3-0.1l0.3-0.1l3.6-1.3l0.5-0.2c0.2-0.1,0.4-0.2,0.6-0.3l4.1-1.5c4.4-1,8.5-2.8,13.2-3.3
			c6-0.8,11.3,0.4,16.6,2.4c3.1,1.2,6.1,2.9,9.2,4.3c0.5,0.3,0.4,0.2,0.9,0.4l5.9,3.4c0.5,0.4,1.1,0.7,1.8,0.9c0.7,0.2,1.4,0.5,2,1
			l2.5,1.4l0.2,0.1l4.6,2.7c0.1,0,0.1,0.1,0.2,0.1l8.5,4.4c0.7,0.4,1.4,0.5,2.1,0.9c0.3,0.2,1.4,0.7,1.7,1l3.7,2
			c3.1,1.2,6.9,3.2,9.7,4.6c3.1,1.6,6.3,2.9,9.6,4l24.9,5.5c0.5-0.8,0.9-1.7,1-2.6c-2-1-4.6-1.6-7.5-3.1c-0.3-0.2-0.6-0.3-0.9-0.4
			c-0.5-0.2-1-0.3-1.4-0.6l-5.5-2.8c-1.4-0.5-1.4-0.8-2.8-1.5l-11.3-5.9c-5.5-3.4-12.3-6.8-18.1-10c-0.1-0.1-0.8-0.5-0.8-0.5
			c-1.3-0.8-2.3-0.9-3.5-1.8l-6.8-3.7c-0.3-0.2-0.5-0.4-0.8-0.5l-2.2-0.8c-3-1.3-6.1-3.4-9.3-4.6c-2.6-0.9-5-1.9-7.4-3.1
			c-1.4-0.8-0.2-0.4-1.4-0.9c-2.8-1.2-8.1-1.3-11.6-1.3l0.4-0.2c0.1,0,0.4-0.2,0.4-0.2c0.4-0.2,0.8-0.3,1.2-0.4l7.4-2.6
			c2.4-0.8,50.8-16.9,53-17.1c2.5,0,10.8-2.2,13.8-3c6.8-2.3,13.4-4.8,20.2-7.3c4.5-1.5,10-4.5,14.3-5.9l9.4-3.8
			c1.9-0.7,2.8-1.5,4.6-2c9.4-4,19-7.8,28.7-11c1.7-0.7,5.2-2.2,7.1-2.5s2.8,0.2,3-1.6c-1.1,0.1-2.2,0.3-3.3,0.6
			c-2.4,0.5-5.5,0.8-8,1.2c-0.4,0.1-0.4,0.1-0.8,0.2c-42.7,10.1-37.4,8.5-71.9,23.6c-0.4,0.2-0.3,0.1-0.6,0.4l-0.2,0.1l-5.6,3.3
			c-0.4,0.2-0.8,0.4-1.3,0.7l-1,0.6l-0.2,0.1l-3,1.7C238.3,62.6,237.1,62.9,235.9,64.2L235.9,64.2z M266.2,65.5
			c0.4-1.4,0.1-0.7,1.2-1.1c2.7-0.9,5.5-1.7,8.3-2.3c2.4-0.7,5.3-1.3,7.7-1.9c17.7-4.5,47.5-4.6,56.1-3.9c5.5,0.6,20.9,0.9,36.8,8.2
			c0.4,0.2,0.3,0.1,0.7,0.3c1.4,0.6,1.6,1,2.9,1.4v1.3c-12.6,0-23.1-0.7-35.1-0.7C318.7,66.8,292.4,65.5,266.2,65.5z M198.8,79.7
			l3.4-0.6c3.8-1.3,8.9-0.8,12.8-0.4c6.3,0.5,19,6.7,24.9,10.1c0.4,0.2,0.6,0.3,0.9,0.4l0.2,0.1l0.2,0.1l15.5,9.3
			c0.2,0.2,0.4,0.3,0.6,0.4c2.2,1.5,4.2,2.6,6.4,4.4l3,1.9c0,0,0.1,0.1,0.2,0.2c1.5,1.4,3.5,2.1,5,3.3c4.9,3.5,12.1,7.2,17.8,10
			c0.3,0.2,0.7,0.3,1,0.4c4.9,2.2,10,4.1,15.1,5.7c3.1,1,3.4,0.7,4.1,1.6c-5.1,1.1-14.9-0.8-20.5-1.3c-11.5-2.2-20.1-5.2-25.9-8.2
			l-31.7-20.3c-0.5-0.3-1.1-0.7-1.6-1.1l-16.5-10c-3-1.8-10.6-4.7-15-4.8L198.8,79.7L198.8,79.7z M171.4,60
			c4.9-4.8,9.7-10.1,14.4-15.1c0.4-0.4,0.8-0.8,1.2-1.2l5.4-4.9l0.7-0.6l4.5-3.7c2.2-2,4.7-3.6,7.1-5.4l3.5-2.4
			C213.9,22,229,14.5,234,11.8c2.6-1,5.1-2.8,6.9-3.4c3-1,5.9-2.6,8.7-3.8c0.9-0.5,1.9-0.9,3-0.9c-0.3,1.1-1,2-2,2.6
			c-0.3,0.2-0.4,0.3-0.8,0.6c-6.8,5.7-13.8,11.3-20.7,16.9c-0.1,0.1-0.1,0.1-0.2,0.1c-0.1,0-0.1,0.1-0.2,0.1l-43.1,34.6l-0.2,0.2
			c-3.4,2.6-7.7,5.5-10.9,8.3l-8.6,6.3c-1.7,1.1-10.3,7.7-12.5,9.7c-2.1,1.9-4.2,3.7-6.5,5.4c-0.5-0.2-1.1-0.3-1.6-0.3
			c1.3-1.9,3.4-5.5,5.4-6.9c5.3-5.1,10.5-10.3,15.6-15.5l0.2-0.2L171.4,60z M92.3,122.4c0.4-1.3,1.4-1.4,2.8-1.9
			c2.3-0.7,4.3-1.9,6.6-2.3c2.1-0.4,4.3-1.1,6.4-1.5c5.4-1.7,14.3-1.5,20.2-0.8c0.5,0.1,2.9,0.2,3.6,0.4c4,1.2,11.6,3.1,15.1,5
			l0.2,0.1l0.6,0.3l10.5,4.7c3.4,1.6,6.7,3.6,10.2,5l2.6,1.1l0.2,0.1c2.4,1.3,5.1,2,7.5,3.4c1.3,0.8,2.2,0.9,3.6,1.7l23.7,11.7
			c0.8,0.4-0.1,0.2,1.3,0.4v1c-1.1-0.5-2.7-0.3-4.3-0.3c-4.5,0-8.4-0.8-12.6-1.3c-2.1-0.2-3.5-0.8-5.7-1.2
			c-4.1-0.8-8.4-2.5-12.4-3.5l-8.3-3c-0.3-0.1-0.6-0.1-1.4-0.3c-7.9-3.4-16-6.8-24.1-9.8c-8.4-3.7-19.4-4.7-29.5-7.7
			C104.7,122.5,97.2,122.4,92.3,122.4L92.3,122.4z M231.8,74.1l8.8-0.8c1.4-0.3,2.9-0.4,4.4-0.2l3.4,0.2c1.7,0.4,3.5,0.6,5.3,0.7
			c3.8,0.6,7.5,1.5,11.1,2.8l0.9,0.4c4.1,1.6,7.9,3.7,11.9,5.6c3.6,1.6,7.1,3.6,10.3,5.9c10,6.4,19.8,12.8,29.8,19.2l0.2,0.1
			l0.5,0.3l0.6,0.4c3.7,2.3,13.8,9.6,15.7,9.8v1.3c-16.5-2.7-24.1-5.3-40.7-10.8l-0.1-0.1l-2.3-0.8c-1.8-0.8-4.1-2.5-5.9-3l-9-5
			l-0.2-0.1c-8.4-6-15.4-11-24.4-16.6c-4.8-2.9-9.6-4.3-14.6-6.2c-1.7-0.8-3.7-1.3-5.6-1.3L231.8,74.1L231.8,74.1z M185.8,76.1
			c0.4-1.5,0.2-0.6,1.4-1.5c0.5-0.5,1.1-0.9,1.7-1.3l9.7-7.2c0.1,0,0.1-0.1,0.2-0.2l7.7-5.5l0.2-0.1l8.1-6.1
			c0.6-0.4,1.2-0.8,1.8-1.2c0.5-0.4,0.9-0.8,1.4-1.2l5-3.6c0.4-0.5,0.9-0.9,1.4-1.2l10.6-8.6l0.2-0.1l0.2-0.1
			c0.8-0.5,0.9-0.6,1.5-1.1c0.3-0.2,0.3-0.2,0.6-0.4l33-19.5c0.7-0.4,1.1-0.7,1.7-1c6.4-2.9,13.1-6,19.7-8.5
			c1.5-0.7,2.2-1.3,3.6-1.4c-0.1,1.4,0,0.5-0.5,1.2c-8.9,7.1-22.1,19.3-31.8,25.8l-6.2,5c-0.6,0.5-0.9,0.6-1.5,1.1l-23.9,18.4
			c-0.6,0.4-0.9,0.6-1.6,1.1c-0.1,0-5.1,3.3-5.2,3.4l-3,1.6c-3.6,2.2-9.3,4.4-13.3,5.8c-0.5,0.2-0.6,0.2-1,0.3l-5.4,1.9l-1,0.3
			l-4.5,1.1c-0.5,0.2-1.4,0.6-1.9,0.8l-4.4,1.2C189,75.9,187.4,76.1,185.8,76.1L185.8,76.1z M55.2,142.9c0.4-1.1,4.5-2.8,5.8-3.1
			l18-5.2c3.8-1.1,14.8-1.1,20-0.9c12.8,0.4,21.8,3.1,34.1,6.5c4,1.3,7.9,2.8,11.6,4.6l28.4,12.6l0.2,0.1l1.5,0.5
			c2.5,0.7,4.5,2.4,7,3.2l3.9,1.7l0.2,0.1c1.7,0.8,5.7,1.7,6.2,3.4c-1.9,0.9-8.6-0.5-11.2-1c-1.5-0.3-2.3-0.2-3.9-0.4
			c-1.3-0.1-1.9-0.5-3.7-0.6c-1.3-0.1-2.4-0.3-3.8-0.5c-3.8-0.5-7.2-0.7-10.6-1.7c-1.2-0.3-2.5-0.5-3.8-0.5l-8.6-1.7
			c-0.6-0.2-0.9-0.2-1.6-0.4c-1.3-0.3-2-0.7-3.3-1l-18.6-7.6c-1.6-0.9-3.2-1.7-4.9-2.4l-5.8-2.4c-4.3-1.7-8.7-3-13.3-3.9
			c-1.6-0.2-5.6-1-7.3-1.3c-6.6-1.4-16.5-1.1-23.2,0.1c-2.1,0.4-3.1,0.2-5.5,0.8c-0.7,0.2-2.1,0.4-2.8,0.5
			C58.8,142.7,56.4,143.5,55.2,142.9L55.2,142.9z M11.2,170.6l0.9-0.8c0.1,0,0.1-0.1,0.2-0.2l2.5-3.1l0.1-0.1
			c0.1-0.2,0.2-0.3,0.3-0.5l3.9-5.7c0.3-0.4,0.3-0.6,0.6-1.1l6.3-11.6c0.4-0.8,0.5-1,0.9-2s0.6-1.4,1-2.3l11.5-32.6l0.1-0.2
			c0.6-1.1,0.2-0.4,0.5-1.7l1-2.4c0.4-1,0.7-1.6,0.9-2.4l9.7-25.3c2.7-6.4,5.6-12.7,8.4-19.1c0.3-0.6,0.3-0.7,0.5-1.2l4.6-10
			c0.2-0.4,0.3-0.7,0.5-1.1l3-6c0.6-0.9,2.1-4.6,3.7-7.2c0,0,0.3-0.6,0.3-0.6l1.4-3.6h-1.4c-0.3,0.7-0.8,1.4-1.4,2l-4.9,5
			c0,0-0.1,0.1-0.2,0.2l-1.7,2l-0.2,0.2l-1,1l-0.2,0.2l-0.2,0.2l-3,3.6c0,0.1-0.1,0.1-0.2,0.2L58.6,46c0,0.1-0.1,0.1-0.2,0.2
			l-2.9,3.4c-0.2,0.2-0.3,0.3-0.5,0.5l-0.5,0.5l-0.1,0.2L52,54.3l-0.2,0.2L39.3,73.3l-0.1,0.2c-3.2,5-5.4,10.5-7.8,16l-1.7,4.6
			c-0.1,0.8-0.4,1.5-0.7,2.2c-0.4,0.8-0.6,1.6-0.9,2.4s-0.4,1.5-0.6,2.3c-0.4,0.8-0.7,1.6-0.9,2.4c-0.2,0.8-0.4,1.6-0.6,2.3
			c-1.3,4.3-2.1,8.4-3.2,12.7l-6.9,31.2c-0.3,0.9-0.2,1.4-0.4,2.6l-3,12.9c-0.2,0.9-0.6,1.7-0.8,2.6
			C11.4,168.7,11.3,169.7,11.2,170.6L11.2,170.6z M86.6,116.1l-0.3,0.3L86.6,116.1z"/>
	</g>
</g>
</svg>
