<svg xmlns="http://www.w3.org/2000/svg" viewBox="0 0 760 189.5"><defs><style>.cls-1{fill:#fff;}.cls-1,.cls-2{fill-rule:evenodd;}.cls-2{fill:#5b9963;}</style></defs><title>leaf-loading_2</title><g id="Layer_2" data-name="Layer 2"><g id="Layer_1-2" data-name="Layer 1"><g id="Layer_1-2-2" data-name="Layer 1-2"><path class="cls-1" d="M235.89,64.24c-.19.13-1,.58-1,.62L186.22,78.73l-.24.1L151.37,90.51a13.34,13.34,0,0,1-2.62.7l-5.36,1.91c-4.55,1.75-10,2.95-14.74,4.77-3.59,1.38-7.29,2.23-11,3.58a6,6,0,0,1-2.59.72c.28-.76,0-.27.54-.78l5.17-4.06c.42-.3.25-.14.49-.25,1.14-.54,1.82-1.65,2.87-2.37l6.09-5.49a44.15,44.15,0,0,0,6.26-5.65l9.14-10,.17-.16,1.4-1.57.14-.19.14-.19,3-3.64.29-.37,12.38-16.72.27-.39L178,29.21l.13-.2c4.92-6.87,9.66-13.53,14.74-20.32L193,8.5l5.48-7.09c.36-.77.21-.4.23-1.41-2,.17-4.26,3-6.56,4.68l-.74.58-.17.16-10.2,8.66c-.22.18-.15.1-.37.29l-.34.31-.17.17c-.34.34-.16.19-.48.51a3,3,0,0,1-.51.48c-10.12,9.59-19,17.68-28.21,28l-.34.33-3.26,4-.14.19L138,60l-.13.2-7.7,11.48-.12.21c-4.48,8.09-7.86,12.7-13.16,20.58l-.13.2-3.25,5a38.13,38.13,0,0,1-5.91,6.65l-3.88,3.4c-.93.63-1.27.89-2.19,1.45l-10.41,5.46c-1.56.62-2.68,1.42-4.49,1.46l1.3-1.34a5.22,5.22,0,0,0,1.35-1.3l1.38-1.12a.75.75,0,0,1,.07-.12,19.42,19.42,0,0,1,3.37-3.53l8.27-9.92c.17-.17.32-.34.47-.52l1-1.33.14-.19,4.73-6.84a6.17,6.17,0,0,1,.39-.6c.3-.43.43-.51.73-.92,5-6.84,9.67-16.29,13.55-24.16l.1-.23c2.28-4.73,4.36-10,6.6-14.57,5.24-10.61,9.81-21.57,15.07-32.22,1.79-4.54,4.38-9.54,6.54-14l.26-.43c.6-1.11.72-2.18-.69-2.63C149.7-.39,149.1,1,147.9,2.7L145,6.45a1.37,1.37,0,0,0-.13.2l-6.78,8.78-.14.18C132.75,22.42,128.21,29,123.26,36c-1.79,2.82-4.24,6.14-6.18,9l-.14.19-1,1.67c-1,1.71-2.22,3.08-3.09,4.85l-4.2,7c0,.06-.08.15-.12.21l-2.19,3.44-.11.21c0,.07-.08.16-.12.22L105.38,64l-.12.21-.26.41c0,.06-.09.14-.12.2l-4.58,7.66c0,.06-.08.15-.12.21l-.11.22-3.32,5.94c-.3.57-.31.59-.59,1.06-5.51,10.27-11,20.58-16.45,30.84l-.48.85a53.17,53.17,0,0,1-5.35,8.54L60.55,132.31c-.26.18-.66.48-1,.69L42.66,144.53c.13-1.52,3.29-4.73,4.4-6.19l.15-.19c3-4,5.94-7.93,8.82-12,.28-.38.33-.44.55-.78l4.07-6.16.29-.37a39,39,0,0,0,2.32-4.32l5.47-9.72c.28-.42.36-.57.63-1l2-4.28c0-.09.21-.31.26-.4L72.13,98a.34.34,0,0,1,.08-.26c.08-.08,0-.17.08-.24l1.09-2.56a9.4,9.4,0,0,0,.53-1.11l2.57-6.37c2.1-4.86,3.68-12.12,6.1-16.72l5.33-15.17c.09-.29.16-.72.25-1.07l2-5.33c.18-.56.1-.58.24-1.08l.08-.26,6.36-19.1c0-.07.07-.15.1-.23l2-5.62a.92.92,0,0,1,.09-.23l1.23-4.4c-1.69,0-1.14.06-1.91,1.07l-3.12,4.16-.14.19L84.87,36.92l-.44.55c-6,8.66-10.89,16.31-16.54,25.46a1.51,1.51,0,0,0-.11.22l-.28.71a5.5,5.5,0,0,1-.86,1.46L63.4,72l-.11.22-1.44,3.19a1.13,1.13,0,0,0-.12.21L61.11,77C60,79.53,57,86.78,56.68,89l-10,35.42a102.4,102.4,0,0,1-6.32,13.86c-.1.18-.25.46-.34.64l-.65,1.34a1.13,1.13,0,0,1-.12.21c-.11.2-.25.43-.37.62l-8.51,13c-.22.33-.16.25-.38.61a4.78,4.78,0,0,1-.38.61c-.71,1-.23.1-.93,1.06l-1.91,2.21c-.58.75.23-.36-.25.44l-6.17,6.55L14.53,171s-.11.11-.16.16l-.18.15-4,3.28-.21.12-8.09,8.77-.13.21C.17,186.06,0,186.11,0,189.5c4.09,0,3.23-1.71,5.9-4a58.65,58.65,0,0,0,6.1-6.8c7.47-8.51,8.8-10.83,18.16-18.19,2-1.43,8.31-3.14,10.53-3.38,1.81-.2,5.11-.1,6.49-.19,3.91-.25,13.77.81,17.7,2.06l7.49,2.1c2.15.74,4.63,1.22,6.75,2.18l8.21,2.7c1.1.4,1.69.32,2.83.81.81.34,1.46.66,2.32,1l9.12,3.11.23.11,6,1.94c1.42.37,1.63.63,2.7.93l22.71,4.74c1.74.13,3.9.47,5.87.74,3.92.55,12.59.43,17,.2a8.47,8.47,0,0,0,1.15-.11c.93-.3.51.11.86-.85l-19.43-7c-2.6-.58-4.88-1.84-7.39-2.54l-1.39-.58a3.9,3.9,0,0,0-.47-.2c-.43-.17-.41-.12-.75-.24a4.5,4.5,0,0,1-.93-.4c-.81-.38-.71-.31-1.63-.68L80.54,150.3c-1.29-.38-7-1.27-8.48-1.43a77.57,77.57,0,0,0-28,2.5c-2,.56-3.56,1.71-5.67,1.75l7-6.22c.29-.22.34-.24.58-.41.59-.41,1.09-.78,1.72-1.25L53.38,141c1.45-1-1,.7.38-.28l17.77-11.66a11.92,11.92,0,0,1,1.16-.5l21.44-12c1-.52,1.27-.47,2.25-1.06l10.77-5.76a45.25,45.25,0,0,1,9.54-3.36c1.37-.38,3.79-.46,5.58-.71a28,28,0,0,1,7.91.56l20.5,8.12.16.08s.36.21.57.31l1.93,1.07a14,14,0,0,1,2.56,1c.49.33.14.14.47.28a6.63,6.63,0,0,1,.95.32l.42.22.21.12,7.74,3.53,1.52.82.85.41,26,10.43c4.32,1.67,9.33,2.59,13.87,3.65,4.18.89,6.85,1,11.29,1.61,1.79.23,7.81,1,9.32.27-.53-1.45-1.73-.71-4.11-1.84a11.48,11.48,0,0,0-1.7-.61l-.24-.1-11.36-4.84a11.42,11.42,0,0,0-1.39-.6c-3.26-1.31-6.17-3.13-9.43-4.45l-4.94-2.67c-.51-.33,0,0-.57-.43l-.19-.14-.21-.12L172.47,110.3a13.83,13.83,0,0,1-1.22-.76c-.38-.27-.17-.14-.57-.43l-.37-.29-11.59-6.27a61.88,61.88,0,0,0-13.95-3.24c-1-.13-3.21-.41-3.83-.38l-7.66.29a8.59,8.59,0,0,0,2.7-.94l.25-.08.25-.08,3.61-1.35.49-.18a2.22,2.22,0,0,0,.64-.35l4.1-1.52c4.45-1,8.47-2.75,13.18-3.35,6-.78,11.31.37,16.63,2.38,3.14,1.19,6.13,2.9,9.23,4.32.54.25.42.15.91.41l5.91,3.36a4.47,4.47,0,0,0,1.75.89,5.38,5.38,0,0,1,2,1l2.51,1.45.22.11,4.62,2.66.21.12L211,112.5c.71.36,1.37.53,2.09.89a12.46,12.46,0,0,1,1.69,1l3.67,2c3.06,1.23,7,3.2,9.67,4.55a68,68,0,0,0,9.58,4l24.94,5.47a5.72,5.72,0,0,0,1-2.64c-2-1-4.62-1.61-7.49-3.1-.3-.15-.6-.29-.91-.41a11.73,11.73,0,0,1-1.43-.55L248.3,121c-1.39-.51-1.37-.85-2.81-1.46l-11.31-5.92c-5.53-3.38-12.32-6.83-18.08-10-.12-.09-.75-.5-.8-.53-1.29-.78-2.33-.93-3.54-1.75L205,97.59a4.3,4.3,0,0,0-.81-.52L202,96.26c-3-1.33-6.12-3.37-9.28-4.61a60.79,60.79,0,0,1-7.45-3.13c-1.35-.76-.22-.39-1.41-.91-2.83-1.24-8.15-1.29-11.6-1.29l.42-.24c.06,0,.36-.18.45-.21.43-.18.78-.27,1.23-.42l7.36-2.56c2.39-.79,50.82-16.89,53-17.08,2.54,0,10.8-2.16,13.83-3,6.8-2.34,13.4-4.8,20.17-7.28,4.54-1.46,10-4.54,14.32-5.86l9.43-3.8c1.92-.74,2.83-1.45,4.63-2,9.43-4,19-7.84,28.71-11,1.66-.7,5.19-2.22,7.13-2.46s2.83.16,3-1.65a15.59,15.59,0,0,0-3.32.64c-2.44.53-5.46.78-8,1.23-.37.1-.43.1-.81.18-42.7,10.14-37.38,8.5-71.95,23.63-.4.23-.28.14-.63.36l-.19.14-5.63,3.3c-.38.24-.75.43-1.27.72l-1,.61-.19.14-3,1.69c-1.73,1.18-2.89,1.47-4.1,2.84Zm30.34,1.24c.38-1.42.08-.67,1.22-1.1a79.42,79.42,0,0,1,8.33-2.27c2.39-.7,5.28-1.25,7.72-1.91,17.66-4.54,47.53-4.6,56.09-3.93,5.5.57,20.85.94,36.76,8.23.41.19.32.12.71.28,1.43.57,1.59,1,2.94,1.36v1.33c-12.59,0-23.14-.66-35.06-.66C318.71,66.81,292.43,65.48,266.23,65.48ZM198.76,79.7l3.4-.57c3.84-1.27,8.88-.76,12.83-.44,6.28.52,19,6.72,24.92,10.13.4.23.59.3.88.45l.21.12.22.11,15.48,9.33c.19.15.39.29.59.42,2.19,1.54,4.23,2.62,6.44,4.45l3,1.93s.11.11.16.16c1.5,1.38,3.48,2.13,5,3.25,4.85,3.52,12.15,7.17,17.79,10a6,6,0,0,0,1,.37,129.19,129.19,0,0,0,15.11,5.72c3.12,1,3.42.65,4.08,1.55-5.15,1.09-14.89-.81-20.49-1.34-11.52-2.23-20.07-5.21-25.86-8.21L231.86,96.88a14.13,14.13,0,0,1-1.58-1.07l-16.49-10c-3-1.82-10.56-4.71-15-4.81V79.7ZM171.45,60c4.85-4.82,9.67-10.08,14.36-15.08A14.61,14.61,0,0,1,187,43.75l5.39-4.87.7-.62,4.53-3.74c2.23-2,4.71-3.62,7.15-5.41l3.54-2.42C213.88,22,229,14.55,234,11.78c2.63-1,5.08-2.78,6.87-3.38,3-1,5.86-2.59,8.73-3.84a6.5,6.5,0,0,1,3-.92,4.28,4.28,0,0,1-2,2.58c-.32.24-.44.31-.77.56C243,12.5,236.05,18.1,229.09,23.71a1.33,1.33,0,0,1-.19.14c-.05,0-.13.1-.19.15L185.57,58.57l-.16.17C182,61.3,177.75,64.19,174.48,67l-8.58,6.3C164.17,74.38,155.65,81,153.38,83a67.28,67.28,0,0,1-6.54,5.36,7.78,7.78,0,0,0-1.65-.33c1.28-1.91,3.43-5.46,5.35-6.88,5.28-5.1,10.46-10.3,15.6-15.49l.16-.18ZM92.27,122.37c.36-1.34,1.37-1.45,2.76-1.87,2.25-.69,4.33-1.94,6.59-2.34,2.1-.38,4.26-1.07,6.41-1.53,5.37-1.71,14.35-1.54,20.2-.79.49.07,2.94.24,3.56.43,4,1.24,11.61,3.07,15.12,5l.21.12.64.35,10.49,4.71c3.44,1.6,6.71,3.55,10.22,5l2.57,1.07.21.12c2.4,1.34,5.15,2,7.48,3.44,1.27.8,2.16.85,3.62,1.67l23.7,11.68c.79.35-.06.23,1.31.35v1c-1.1-.53-2.71-.33-4.3-.32-4.49,0-8.36-.84-12.62-1.27-2.08-.21-3.52-.82-5.71-1.24-4.14-.8-8.38-2.53-12.4-3.48l-8.33-3c-.3-.1-.58-.07-1.42-.28-8-3.35-16-6.79-24.07-9.77-8.42-3.73-19.37-4.74-29.5-7.65-4.31-1.24-11.84-1.37-16.72-1.37ZM231.84,74.08l8.83-.76a15.84,15.84,0,0,1,4.4-.23l3.4.23a33.81,33.81,0,0,0,5.3.65,62.69,62.69,0,0,1,11.13,2.77l.9.42c4.09,1.59,7.92,3.66,11.9,5.63A58.15,58.15,0,0,1,288,88.71c10,6.38,19.83,12.81,29.76,19.24l.16.07.5.25.56.37c3.68,2.32,13.75,9.59,15.73,9.76v1.32c-16.52-2.7-24.09-5.27-40.68-10.81l-.14-.11-2.31-.84c-1.84-.78-4.1-2.47-5.92-3l-9-5-.2-.13c-8.39-6-15.36-11-24.39-16.61-4.81-2.88-9.62-4.26-14.65-6.19a13.72,13.72,0,0,0-5.59-1.35v-1.6Zm-46,2c.38-1.46.24-.58,1.44-1.54a6.8,6.8,0,0,1,1.7-1.27l9.68-7.19c.05,0,.12-.11.18-.15l7.74-5.49.19-.14,8.12-6.1a20.42,20.42,0,0,0,1.82-1.2,16.68,16.68,0,0,1,1.45-1.19l5-3.61a8.66,8.66,0,0,1,1.43-1.2l10.57-8.62.2-.13.2-.13c.81-.54.86-.61,1.54-1.1.27-.19.33-.21.59-.41l33-19.55c.69-.37,1.14-.69,1.7-.95,6.41-2.86,13.08-6,19.68-8.46,1.48-.67,2.2-1.25,3.57-1.37-.12,1.43,0,.5-.46,1.2-8.86,7.14-22.13,19.27-31.79,25.76l-6.22,5c-.6.51-.92.63-1.51,1.13l-23.9,18.44c-.63.43-.91.64-1.58,1.06-.06,0-5.05,3.35-5.17,3.44l-3,1.61c-3.59,2.17-9.34,4.36-13.34,5.84l-1,.34L202.28,72l-1,.34-4.5,1.12c-.51.17-1.42.64-1.86.78l-4.44,1.19a16.45,16.45,0,0,1-4.63.66ZM55.23,142.87c.42-1.15,4.55-2.84,5.77-3.15l18-5.21c3.8-1.09,14.81-1.06,20-.91,12.81.38,21.78,3.15,34.14,6.54a87.9,87.9,0,0,1,11.62,4.58l28.42,12.59.22.11,1.51.48c2.53.73,4.51,2.42,7,3.23l4,1.67.2.1c1.68.81,5.7,1.7,6.17,3.45-1.94.94-8.6-.54-11.24-1-1.46-.25-2.28-.18-3.93-.36-1.33-.14-1.89-.49-3.67-.63-1.27-.1-2.42-.27-3.83-.47-3.78-.53-7.18-.72-10.57-1.67a20.87,20.87,0,0,0-3.77-.53l-8.55-1.7c-.55-.17-.92-.23-1.59-.4-1.28-.32-2-.72-3.26-1L123.18,151a52.86,52.86,0,0,0-4.92-2.36l-5.84-2.43a70.46,70.46,0,0,0-13.27-3.92c-1.6-.18-5.61-1-7.3-1.3-6.62-1.35-16.53-1.13-23.19.11-2.09.39-3.09.18-5.45.84-.71.19-2.09.4-2.78.52-1.66.27-4,1-5.2.42Zm-44,27.78.9-.76a1.21,1.21,0,0,0,.16-.16l2.46-3.12.08-.15c.11-.16.22-.31.34-.46l3.9-5.7c.27-.45.32-.58.6-1.06L26,147.69c.37-.84.53-1,.94-2s.58-1.39,1-2.31l11.51-32.6.09-.16c.58-1.12.16-.42.53-1.74l1-2.37c.36-1,.66-1.57.91-2.4l9.7-25.31c2.74-6.36,5.6-12.71,8.39-19.06.26-.6.3-.7.51-1.15l4.58-10c.19-.37.31-.66.54-1.12l3-6c.55-.88,2.1-4.58,3.71-7.2l.35-.64L74.13,30H72.76a5.59,5.59,0,0,1-1.38,2l-4.94,5s-.12.11-.16.16l-1.66,2-.16.18-1,1-.15.18-.16.17-3,3.6c0,.06-.1.14-.15.19L58.61,46a1.19,1.19,0,0,1-.15.18L55.59,49.6a5.78,5.78,0,0,0-.49.5l-.45.55-.14.19-2.46,3.48-.16.18L39.25,73.32l-.13.2c-3.21,5-5.43,10.54-7.82,16l-1.67,4.61a9.27,9.27,0,0,1-.74,2.23c-.35.82-.59,1.6-.87,2.44s-.36,1.48-.64,2.34a16.41,16.41,0,0,0-.88,2.43,16,16,0,0,1-.63,2.35c-1.33,4.32-2.11,8.4-3.17,12.7l-6.88,31.16c-.26.9-.18,1.45-.42,2.55l-3,12.88c-.22.85-.59,1.69-.75,2.56a17.66,17.66,0,0,0-.42,2.89Zm75.41-54.57-.33.33Z"/></g><g id="Layer_1-2-3" data-name="Layer 1-2"><path class="cls-2" d="M615.89,64.24c-.19.13-1,.58-1,.62L566.22,78.73l-.24.1L531.37,90.51a13.34,13.34,0,0,1-2.62.7l-5.36,1.91c-4.55,1.75-10,2.95-14.74,4.77-3.59,1.38-7.29,2.23-11,3.58a6,6,0,0,1-2.59.72c.28-.76,0-.27.54-.78l5.17-4.06c.42-.3.25-.14.49-.25,1.14-.54,1.82-1.65,2.87-2.37l6.09-5.49a44.15,44.15,0,0,0,6.26-5.65l9.14-10,.17-.16,1.4-1.57.14-.19.14-.19,3-3.64.29-.37,12.38-16.72.27-.39L558,29.21l.13-.2c4.92-6.87,9.66-13.53,14.74-20.32L573,8.5l5.48-7.09c.36-.77.21-.4.23-1.41-2,.17-4.26,3-6.56,4.68l-.74.58-.17.16-10.2,8.66c-.22.18-.15.1-.37.29l-.34.31-.17.17c-.34.34-.16.19-.48.51a3,3,0,0,1-.51.48c-10.12,9.59-19,17.68-28.21,28l-.34.33-3.26,4-.14.19L518,60l-.13.2-7.7,11.48-.12.21c-4.48,8.09-7.86,12.7-13.16,20.58l-.13.2-3.25,5a38.13,38.13,0,0,1-5.91,6.65l-3.88,3.4c-.93.63-1.27.89-2.19,1.45l-10.41,5.46c-1.56.62-2.68,1.42-4.49,1.46l1.3-1.34a5.22,5.22,0,0,0,1.35-1.3l1.38-1.12a.75.75,0,0,1,.07-.12,19.42,19.42,0,0,1,3.37-3.53l8.27-9.92c.17-.17.32-.34.47-.52l1-1.33.14-.19,4.73-6.84a6.17,6.17,0,0,1,.39-.6c.3-.43.43-.51.73-.92,5-6.84,9.67-16.29,13.55-24.16l.1-.23c2.28-4.73,4.36-10,6.6-14.57,5.24-10.61,9.81-21.57,15.07-32.22,1.79-4.54,4.38-9.54,6.54-14l.26-.43c.6-1.11.72-2.18-.69-2.63S529.1,1,527.9,2.7L525,6.45a1.37,1.37,0,0,0-.13.2l-6.78,8.78-.14.18C512.75,22.42,508.21,29,503.26,36c-1.79,2.82-4.24,6.14-6.18,9l-.14.19-1,1.67c-1,1.71-2.22,3.08-3.09,4.85l-4.2,7c0,.06-.08.15-.12.21l-2.19,3.44-.11.21c0,.07-.08.16-.12.22L485.38,64l-.12.21-.26.41c0,.06-.09.14-.12.2l-4.58,7.66c0,.06-.08.15-.12.21l-.11.22-3.32,5.94c-.3.57-.31.59-.59,1.06-5.51,10.27-11,20.58-16.45,30.84l-.48.85a53.17,53.17,0,0,1-5.35,8.54l-13.33,12.13c-.26.18-.66.48-1,.69l-16.89,11.53c.13-1.52,3.29-4.73,4.4-6.19l.15-.19c3-4,5.94-7.93,8.82-12,.28-.38.33-.44.55-.78l4.07-6.16.29-.37a39,39,0,0,0,2.32-4.32l5.47-9.72c.28-.42.36-.57.63-1l2-4.28c0-.09.21-.31.26-.4l.51-1.14a.34.34,0,0,1,.08-.26c.08-.08,0-.17.08-.24l1.09-2.56a9.4,9.4,0,0,0,.53-1.11l2.57-6.37c2.1-4.86,3.68-12.12,6.1-16.72l5.33-15.17c.09-.29.16-.72.25-1.07l2-5.33c.18-.56.1-.58.24-1.08l.08-.26,6.36-19.1c0-.07.07-.15.1-.23l2-5.62a.92.92,0,0,1,.09-.23l1.23-4.4c-1.69,0-1.14.06-1.91,1.07l-3.12,4.16-.14.19L464.87,36.92l-.44.55c-6,8.66-10.89,16.31-16.54,25.46a1.51,1.51,0,0,0-.11.22l-.28.71a5.5,5.5,0,0,1-.86,1.46L443.4,72l-.11.22-1.44,3.19a1.13,1.13,0,0,0-.12.21L441.11,77c-1.12,2.53-4.08,9.78-4.43,12l-10,35.42a102.4,102.4,0,0,1-6.32,13.86c-.1.18-.25.46-.34.64l-.65,1.34a1.13,1.13,0,0,1-.12.21c-.11.2-.25.43-.37.62l-8.51,13c-.22.33-.16.25-.38.61a4.78,4.78,0,0,1-.38.61c-.71,1-.23.1-.93,1.06l-1.91,2.21c-.58.75.23-.36-.25.44l-6.17,6.55L394.53,171s-.11.11-.16.16l-.18.15-4,3.28-.21.12-8.09,8.77-.13.21c-1.59,2.37-1.76,2.42-1.76,5.81,4.09,0,3.23-1.71,5.9-4a58.65,58.65,0,0,0,6.1-6.8c7.47-8.51,8.8-10.83,18.16-18.19,2-1.43,8.31-3.14,10.53-3.38,1.81-.2,5.11-.1,6.49-.19,3.91-.25,13.77.81,17.7,2.06l7.49,2.1c2.15.74,4.63,1.22,6.75,2.18l8.21,2.7c1.1.4,1.69.32,2.83.81.81.34,1.46.66,2.32,1l9.12,3.11.23.11,6,1.94c1.42.37,1.63.63,2.7.93l22.71,4.74c1.74.13,3.9.47,5.87.74,3.92.55,12.59.43,17,.2a8.47,8.47,0,0,0,1.15-.11c.93-.3.51.11.86-.85l-19.43-7c-2.6-.58-4.88-1.84-7.39-2.54l-1.39-.58a3.9,3.9,0,0,0-.47-.2c-.43-.17-.41-.12-.75-.24a4.5,4.5,0,0,1-.93-.4c-.81-.38-.71-.31-1.63-.68L460.54,150.3c-1.29-.38-7-1.27-8.48-1.43a77.57,77.57,0,0,0-28,2.5c-2,.56-3.56,1.71-5.67,1.75l7-6.22c.29-.22.34-.24.58-.41.59-.41,1.09-.78,1.72-1.25l5.69-4.24c1.45-1-1,.7.38-.28l17.77-11.66a11.92,11.92,0,0,1,1.16-.5l21.44-12c1-.52,1.27-.47,2.25-1.06l10.77-5.76a45.25,45.25,0,0,1,9.54-3.36c1.37-.38,3.79-.46,5.58-.71a28,28,0,0,1,7.91.56l20.5,8.12.16.08s.36.21.57.31l1.93,1.07a14,14,0,0,1,2.56,1c.49.33.14.14.47.28a6.63,6.63,0,0,1,1,.32l.42.22.21.12,7.74,3.53,1.52.82.85.41,26,10.43c4.32,1.67,9.33,2.59,13.87,3.65,4.18.89,6.85,1,11.29,1.61,1.79.23,7.81,1,9.32.27-.53-1.45-1.73-.71-4.11-1.84a11.48,11.48,0,0,0-1.7-.61l-.24-.1-11.36-4.84a11.42,11.42,0,0,0-1.39-.6c-3.26-1.31-6.17-3.13-9.43-4.45l-4.94-2.67c-.51-.33,0,0-.57-.43l-.19-.14-.21-.12L552.47,110.3a13.83,13.83,0,0,1-1.22-.76c-.38-.27-.17-.14-.57-.43l-.37-.29-11.59-6.27a61.88,61.88,0,0,0-14-3.24c-1-.13-3.21-.41-3.83-.38l-7.66.29a8.59,8.59,0,0,0,2.7-.94l.25-.08.25-.08,3.61-1.35.49-.18a2.22,2.22,0,0,0,.64-.35l4.1-1.52c4.45-1,8.47-2.75,13.18-3.35,6-.78,11.31.37,16.63,2.38,3.14,1.19,6.13,2.9,9.23,4.32.54.25.42.15.91.41l5.91,3.36a4.47,4.47,0,0,0,1.75.89,5.38,5.38,0,0,1,2,1l2.51,1.45.22.11,4.62,2.66a1.13,1.13,0,0,1,.21.12L591,112.5c.71.36,1.37.53,2.09.89a12.46,12.46,0,0,1,1.69,1l3.67,2c3.06,1.23,6.95,3.2,9.67,4.55a68,68,0,0,0,9.58,4l24.94,5.47a5.72,5.72,0,0,0,1-2.64c-2-1-4.62-1.61-7.49-3.1-.3-.15-.6-.29-.91-.41a11.73,11.73,0,0,1-1.43-.55L628.3,121c-1.39-.51-1.37-.85-2.81-1.46l-11.31-5.92c-5.53-3.38-12.32-6.83-18.08-10-.12-.09-.75-.5-.8-.53-1.29-.78-2.33-.93-3.54-1.75L585,97.59a4.3,4.3,0,0,0-.81-.52L582,96.26c-3-1.33-6.12-3.37-9.28-4.61a60.79,60.79,0,0,1-7.45-3.13c-1.35-.76-.22-.39-1.41-.91-2.83-1.24-8.15-1.29-11.6-1.29l.42-.24c.06,0,.36-.18.45-.21.43-.18.78-.27,1.23-.42l7.36-2.56c2.39-.79,50.82-16.89,53-17.08,2.54,0,10.8-2.16,13.83-3,6.8-2.34,13.4-4.8,20.17-7.28,4.54-1.46,10-4.54,14.32-5.86l9.43-3.8c1.92-.74,2.83-1.45,4.63-2,9.43-4,19-7.84,28.71-11,1.66-.7,5.19-2.22,7.13-2.46s2.83.16,3-1.65a15.59,15.59,0,0,0-3.32.64c-2.44.53-5.46.78-8,1.23-.37.1-.43.1-.81.18-42.7,10.14-37.38,8.5-72,23.63-.4.23-.28.14-.63.36l-.19.14-5.63,3.3c-.38.24-.75.43-1.27.72l-1,.61-.19.14-3,1.69c-1.73,1.18-2.89,1.47-4.1,2.84Zm30.34,1.24c.38-1.42.08-.67,1.22-1.1a79.42,79.42,0,0,1,8.33-2.27c2.39-.7,5.28-1.25,7.72-1.91,17.66-4.54,47.53-4.6,56.09-3.93,5.5.57,20.85.94,36.76,8.23.41.19.32.12.71.28,1.43.57,1.59,1,2.94,1.36v1.33c-12.59,0-23.14-.66-35.06-.66C698.71,66.81,672.43,65.48,646.23,65.48ZM578.76,79.7l3.4-.57c3.84-1.27,8.88-.76,12.83-.44,6.28.52,19,6.72,24.92,10.13.4.23.59.3.88.45l.21.12.22.11,15.48,9.33c.19.15.39.29.59.42,2.19,1.54,4.23,2.62,6.44,4.45l3,1.93s.11.11.16.16c1.5,1.38,3.48,2.13,5,3.25,4.85,3.52,12.15,7.17,17.79,10a6,6,0,0,0,1,.37,129.19,129.19,0,0,0,15.11,5.72c3.12,1,3.42.65,4.08,1.55-5.15,1.09-14.89-.81-20.49-1.34-11.52-2.23-20.07-5.21-25.86-8.21L611.86,96.88a14.13,14.13,0,0,1-1.58-1.07l-16.49-10c-3-1.82-10.56-4.71-15-4.81V79.7ZM551.45,60c4.85-4.82,9.67-10.08,14.36-15.08A14.61,14.61,0,0,1,567,43.75l5.39-4.87.7-.62,4.53-3.74c2.23-2,4.71-3.62,7.15-5.41l3.54-2.42C593.88,22,609,14.55,614,11.78c2.63-1,5.08-2.78,6.87-3.38,3-1,5.86-2.59,8.73-3.84a6.5,6.5,0,0,1,3-.92,4.28,4.28,0,0,1-2,2.58c-.32.24-.44.31-.77.56C623,12.5,616.05,18.1,609.09,23.71a1.33,1.33,0,0,1-.19.14s-.13.1-.19.15L565.57,58.57l-.16.17C562,61.3,557.75,64.19,554.48,67l-8.58,6.3C544.17,74.38,535.65,81,533.38,83a67.28,67.28,0,0,1-6.54,5.36,7.78,7.78,0,0,0-1.65-.33c1.28-1.91,3.43-5.46,5.35-6.88,5.28-5.1,10.46-10.3,15.6-15.49l.16-.18Zm-79.18,62.37c.36-1.34,1.37-1.45,2.76-1.87,2.25-.69,4.33-1.94,6.59-2.34,2.1-.38,4.26-1.07,6.41-1.53,5.37-1.71,14.35-1.54,20.2-.79.49.07,2.94.24,3.56.43,4,1.24,11.61,3.07,15.12,5l.21.12.64.35,10.49,4.71c3.44,1.6,6.71,3.55,10.22,5l2.57,1.07.21.12c2.4,1.34,5.15,2,7.48,3.44,1.27.8,2.16.85,3.62,1.67l23.7,11.68c.79.35-.06.23,1.31.35v1c-1.1-.53-2.71-.33-4.3-.32-4.49,0-8.36-.84-12.62-1.27-2.08-.21-3.52-.82-5.71-1.24-4.14-.8-8.38-2.53-12.4-3.48l-8.33-3c-.3-.1-.58-.07-1.42-.28-8-3.35-16-6.79-24.07-9.77-8.42-3.73-19.37-4.74-29.5-7.65-4.31-1.24-11.84-1.37-16.72-1.37ZM611.84,74.08l8.83-.76a15.84,15.84,0,0,1,4.4-.23l3.4.23a33.81,33.81,0,0,0,5.3.65,62.69,62.69,0,0,1,11.13,2.77l.9.42c4.09,1.59,7.92,3.66,11.9,5.63A58.15,58.15,0,0,1,668,88.71c10,6.38,19.83,12.81,29.76,19.24l.16.07.5.25.56.37c3.68,2.32,13.75,9.59,15.73,9.76v1.32c-16.52-2.7-24.09-5.27-40.68-10.81l-.14-.11-2.31-.84c-1.84-.78-4.1-2.47-5.92-3l-9-5-.2-.13c-8.39-6-15.36-11-24.39-16.61-4.81-2.88-9.62-4.26-14.65-6.19a13.72,13.72,0,0,0-5.59-1.35v-1.6Zm-46,2c.38-1.46.24-.58,1.44-1.54a6.8,6.8,0,0,1,1.7-1.27l9.68-7.19c.05,0,.12-.11.18-.15l7.74-5.49.19-.14,8.12-6.1a20.42,20.42,0,0,0,1.82-1.2,16.68,16.68,0,0,1,1.45-1.19l5-3.61a8.66,8.66,0,0,1,1.43-1.2l10.57-8.62.2-.13.2-.13c.81-.54.86-.61,1.54-1.1.27-.19.33-.21.59-.41l33-19.55c.69-.37,1.14-.69,1.7-.95,6.41-2.86,13.08-6,19.68-8.46,1.48-.67,2.2-1.25,3.57-1.37-.12,1.43,0,.5-.46,1.2-8.86,7.14-22.13,19.27-31.79,25.76l-6.22,5c-.6.51-.92.63-1.51,1.13l-23.9,18.44c-.63.43-.91.64-1.58,1.06-.06,0-5,3.35-5.17,3.44l-3,1.61c-3.59,2.17-9.34,4.36-13.34,5.84l-1,.34L582.28,72l-1,.34-4.5,1.12c-.51.17-1.42.64-1.86.78l-4.44,1.19a16.45,16.45,0,0,1-4.63.66ZM435.23,142.87c.42-1.15,4.55-2.84,5.77-3.15l18-5.21c3.8-1.09,14.81-1.06,20-.91,12.81.38,21.78,3.15,34.14,6.54a87.9,87.9,0,0,1,11.62,4.58l28.42,12.59.22.11,1.51.48c2.53.73,4.51,2.42,7,3.23l4,1.67.2.1c1.68.81,5.7,1.7,6.17,3.45-1.94.94-8.6-.54-11.24-1-1.46-.25-2.28-.18-3.93-.36-1.33-.14-1.89-.49-3.67-.63-1.27-.1-2.42-.27-3.83-.47-3.78-.53-7.18-.72-10.57-1.67a20.87,20.87,0,0,0-3.77-.53l-8.55-1.7c-.55-.17-.92-.23-1.59-.4-1.28-.32-2-.72-3.26-1L503.18,151a52.86,52.86,0,0,0-4.92-2.36l-5.84-2.43a70.46,70.46,0,0,0-13.27-3.92c-1.6-.18-5.61-1-7.3-1.3-6.62-1.35-16.53-1.13-23.19.11-2.09.39-3.09.18-5.45.84-.71.19-2.09.4-2.78.52-1.66.27-4,1-5.2.42Zm-44,27.78.9-.76a1.21,1.21,0,0,0,.16-.16l2.46-3.12.08-.15c.11-.16.22-.31.34-.46l3.9-5.7c.27-.45.32-.58.6-1.06L406,147.69c.37-.84.53-1,.94-2s.58-1.39,1-2.31l11.51-32.6.09-.16c.58-1.12.16-.42.53-1.74l1-2.37c.36-1,.66-1.57.91-2.4l9.7-25.31c2.74-6.36,5.6-12.71,8.39-19.06.26-.6.3-.7.51-1.15l4.58-10c.19-.37.31-.66.54-1.12l3-6c.55-.88,2.1-4.58,3.71-7.2l.35-.64L454.13,30h-1.37a5.59,5.59,0,0,1-1.38,2l-4.94,5s-.12.11-.16.16l-1.66,2-.16.18-1,1-.15.18-.16.17-3,3.6c0,.06-.1.14-.15.19L438.61,46a1.19,1.19,0,0,1-.15.18l-2.87,3.42a5.78,5.78,0,0,0-.49.5l-.45.55-.14.19-2.46,3.48-.16.18L419.25,73.32l-.13.2c-3.21,5-5.43,10.54-7.82,16l-1.67,4.61a9.27,9.27,0,0,1-.74,2.23c-.35.82-.59,1.6-.87,2.44s-.36,1.48-.64,2.34a16.41,16.41,0,0,0-.88,2.43,16,16,0,0,1-.63,2.35c-1.33,4.32-2.11,8.4-3.17,12.7l-6.88,31.16c-.26.9-.18,1.45-.42,2.55l-3,12.88c-.22.85-.59,1.69-.75,2.56a17.66,17.66,0,0,0-.42,2.89Zm75.41-54.57-.33.33Z"/></g></g></g></svg>