<svg xmlns="http://www.w3.org/2000/svg" xmlns:xlink="http://www.w3.org/1999/xlink" width="32.322" height="31.406" viewBox="0 0 32.322 31.406">
  <defs>
    <clipPath id="clip-path">
      <path id="Path_12826" data-name="Path 12826" d="M0-364.94H32.322v-31.406H0Z" transform="translate(0 396.346)" fill="#fff"/>
    </clipPath>
  </defs>
  <g id="Group_3079" data-name="Group 3079" transform="translate(0 396.346)">
    <g id="Group_3078" data-name="Group 3078" transform="translate(0 -396.346)" clip-path="url(#clip-path)">
      <g id="Group_3077" data-name="Group 3077" transform="translate(0 0)">
        <path id="Path_12825" data-name="Path 12825" d="M-375.474-18.94a1.455,1.455,0,0,1-.052.246,7.48,7.48,0,0,1-.26.726,8.266,8.266,0,0,1-.433.877c-.16.284-.334.56-.513.833s-.365.542-.55.812-.367.54-.543.815l-.06.095c-1.64,2.616-3.334,5.2-5.007,7.793q-1.788,2.774-3.581,5.544-2.89,4.473-5.781,8.945c-.392.607-.766,1.228-1.192,1.81a3.113,3.113,0,0,1-2.193,1.244,3.6,3.6,0,0,1-3.469-1.627c-.517-.653-1.094-1.26-1.637-1.893-.728-.85-1.446-1.707-2.174-2.557-.534-.623-1.082-1.236-1.616-1.859-.9-1.048-1.859-2.05-2.663-3.165a3.347,3.347,0,0,1,.817-4.612,3.4,3.4,0,0,1,4.021-.019,10.539,10.539,0,0,1,1.345,1.365c.571.64,1.111,1.308,1.666,1.962q1.1,1.295,2.2,2.587c.255.3.524.582.8.886.484-.568.962-1.118,1.428-1.678.589-.709,1.167-1.427,1.753-2.139q1.3-1.579,2.608-3.153c.833-1,1.682-1.985,2.51-2.987.91-1.1,1.8-2.218,2.708-3.319.721-.873,1.466-1.727,2.191-2.6.7-.839,1.379-1.692,2.076-2.531.581-.7,1.165-1.4,1.766-2.085a13.38,13.38,0,0,1,1.286-1.349,1.937,1.937,0,0,1,1.728-.559.918.918,0,0,1,.561.388,1.27,1.27,0,0,1,.107.192,1.586,1.586,0,0,1,.144.4,3.442,3.442,0,0,1,.015.414,1.325,1.325,0,0,1-.009.193" transform="translate(407.787 20.57)" fill="#fff"/>
      </g>
    </g>
  </g>
</svg>
