<?xml version="1.0" encoding="utf-8"?>
<!-- Generator: Adobe Illustrator 23.1.0, SVG Export Plug-In . SVG Version: 6.00 Build 0)  -->
<svg version="1.1" id="Layer_1" xmlns="http://www.w3.org/2000/svg" xmlns:xlink="http://www.w3.org/1999/xlink" x="0px" y="0px"
	 viewBox="0 0 64 64" style="enable-background:new 0 0 64 64;" xml:space="preserve">
<style type="text/css">
	.st0{fill:#ACACAD;}
</style>
<g>
	<g id="Icon-Eye" transform="translate(278.000000, 484.000000)">
		<path id="Fill-174" class="st0" d="M-246-430.6c-21.6,0-31.4-19.8-31.8-20.7c-0.3-0.6-0.3-1.1,0-1.7c0.4-0.8,10.2-20.7,31.8-20.7
			s31.4,19.8,31.8,20.7c0.3,0.6,0.3,1.1,0,1.7C-214.6-450.3-224.4-430.6-246-430.6L-246-430.6z M-274.2-452
			c2,3.6,11.2,17.8,28.2,17.8s26.2-14.2,28.2-17.8c-2-3.6-11.2-17.8-28.2-17.8S-272.2-455.6-274.2-452L-274.2-452z"/>
		<path id="Fill-175" class="st0" d="M-246-434.5c-9.4,0-16.8-7.9-16.8-17.5c0-9.6,7.6-17.5,16.8-17.5c9.2,0,16.8,7.9,16.8,17.5
			C-229.2-442.4-236.6-434.5-246-434.5L-246-434.5z M-246-465.8c-7.3,0-13.4,6.2-13.4,13.9s6,13.9,13.4,13.9
			c7.3,0,13.4-6.2,13.4-13.9S-238.7-465.8-246-465.8L-246-465.8z"/>
		<path id="Fill-176" class="st0" d="M-246-442.2c-5.1,0-9.4-4.3-9.4-9.7c0-1,0.8-1.8,1.7-1.8s1.7,0.8,1.7,1.8c0,3.3,2.5,6,5.7,6
			c3.2,0,5.7-2.6,5.7-6s-2.5-6-5.7-6c-0.9,0-1.7-0.8-1.7-1.8c0-1,0.8-1.8,1.7-1.8c5.1,0,9.4,4.3,9.4,9.7S-240.9-442.2-246-442.2"/>
	</g>
</g>
</svg>
