<?xml version="1.0" encoding="utf-8"?>
<!-- Generator: Adobe Illustrator 23.1.0, SVG Export Plug-In . SVG Version: 6.00 Build 0)  -->
<svg version="1.1" id="Layer_1" xmlns:sketch="http://www.bohemiancoding.com/sketch/ns"
	 xmlns="http://www.w3.org/2000/svg" xmlns:xlink="http://www.w3.org/1999/xlink" x="0px" y="0px" viewBox="0 0 60 60"
	 style="enable-background:new 0 0 60 60;" xml:space="preserve">
<style type="text/css">
	.st0{fill-rule:evenodd;clip-rule:evenodd;fill:#8AB790;}
</style>
<title></title>
<desc></desc>
<g id="black">
	<g id="slice" transform="translate(-500.000000, -100.000000)">
	</g>
	<g id="youtube" transform="translate(10.000000, 16.000000)">
		<path id="Fill-195" class="st0" d="M49.4,2.4c0,0-0.6-4.1-2.4-6C44.7-6,42.2-6,41-6.1c-8.4-0.6-21-0.6-21-0.6l0,0
			c0,0-12.6,0-21,0.6C-2.2-6-4.7-5.9-7-3.6c-1.8,1.8-2.4,6-2.4,6S-10,7.3-10,12.1v4.6c0,4.9,0.6,9.7,0.6,9.7s0.6,4.1,2.4,6
			c2.3,2.4,5.3,2.3,6.6,2.6C4.4,35.4,20,35.5,20,35.5s12.6,0,21-0.6c1.2-0.1,3.7-0.2,6-2.5c1.8-1.8,2.4-6,2.4-6s0.6-4.9,0.6-9.7
			v-4.6C50,7.3,49.4,2.4,49.4,2.4z M13.8,22.2V5.3L30,13.8L13.8,22.2z"/>
	</g>
</g>
</svg>
